<?xml version="1.0" encoding="utf-8"?>
<svg xmlns="http://www.w3.org/2000/svg" viewBox="0 0 303.35 397.45"><g id="Calque_4" data-name="Calque 4"><path d="M6813.71,7575.68" transform="translate(-7052.27 -7026.14)"/><path d="M7184.43,7474" transform="translate(-7052.27 -7026.14)"/><path d="M6833.24,7568.87" transform="translate(-7052.27 -7026.14)"/><path d="M7052.27,7378.44h3.45v34.79h-3.45Zm2.87,31.58h6.78a3.42,3.42,0,0,0,2.41-.79,2.81,2.81,0,0,0,.86-2.2v-6.15a5.17,5.17,0,0,0-.46-2.27,3.5,3.5,0,0,0-1.27-1.46,3.34,3.34,0,0,0-1.78-.5h-6.54v-3.21h6.54a2.73,2.73,0,0,0,2.26-1,4.45,4.45,0,0,0,.8-2.83v-5a2.93,2.93,0,0,0-.8-2.19,3.11,3.11,0,0,0-2.22-.77h-6.58v-3.21h6.46a8.19,8.19,0,0,1,3.56.71,5.11,5.11,0,0,1,2.25,2,6.37,6.37,0,0,1,.77,3.22v4.66a9.9,9.9,0,0,1-.38,2.92,5.47,5.47,0,0,1-1.1,2.09,3.64,3.64,0,0,1-1.75,1.1,3.8,3.8,0,0,1,2,1.07,5.48,5.48,0,0,1,1.26,2.18,10.39,10.39,0,0,1,.43,3.11v5.57a6.73,6.73,0,0,1-.76,3.32,4.93,4.93,0,0,1-2.17,2.09,7.6,7.6,0,0,1-3.46.72h-7.11Z" transform="translate(-7052.27 -7026.14)"/><path d="M7071.39,7388.39h3.54l5.72,21.2-1.27,5.29Zm17,0-8.18,30.65a6,6,0,0,1-1.32,2.54,5.59,5.59,0,0,1-2.35,1.51,10.84,10.84,0,0,1-3.48.5h-.27v-3.26h.27a4.59,4.59,0,0,0,3.11-.95,5.91,5.91,0,0,0,1.65-2.92l7-28.07Z" transform="translate(-7052.27 -7026.14)"/><path d="M7101.91,7412.69a5.92,5.92,0,0,1-2.81-2.71,9.83,9.83,0,0,1-.94-4.55v-1.72h3.4v1.72a5.08,5.08,0,0,0,1.26,3.76,5.2,5.2,0,0,0,3.81,1.24,5,5,0,0,0,3.72-1.24,5.16,5.16,0,0,0,1.23-3.76v-2.06a5.25,5.25,0,0,0-.74-2.86,6.64,6.64,0,0,0-1.9-2,23.41,23.41,0,0,0-3-1.71l-.13-.06-.11-.06-.33-.17a32.55,32.55,0,0,1-3.79-2.13,8.3,8.3,0,0,1-2.42-2.57,7.54,7.54,0,0,1-1-4v-1.7a9.61,9.61,0,0,1,.93-4.47,5.88,5.88,0,0,1,2.8-2.68,10.93,10.93,0,0,1,4.69-.89,10.17,10.17,0,0,1,4.54.9,5.86,5.86,0,0,1,2.73,2.7,10,10,0,0,1,.91,4.54V7388h-3.4v-1.82a5.2,5.2,0,0,0-1.19-3.73,4.77,4.77,0,0,0-3.59-1.25,5.36,5.36,0,0,0-3.77,1.18,4.67,4.67,0,0,0-1.26,3.56v1.7a4.65,4.65,0,0,0,.79,2.72,6.91,6.91,0,0,0,1.95,1.86,32.72,32.72,0,0,0,3.2,1.71l.37.18.37.18.18.08a.75.75,0,0,1,.15.09,19.65,19.65,0,0,1,3.32,2,7.93,7.93,0,0,1,2.21,2.69,8.53,8.53,0,0,1,.86,4v2.2a9.82,9.82,0,0,1-.92,4.53,6,6,0,0,1-2.77,2.72,10.52,10.52,0,0,1-4.66.91A10.88,10.88,0,0,1,7101.91,7412.69Z" transform="translate(-7052.27 -7026.14)"/><path d="M7121,7411.85a7.34,7.34,0,0,1-1.63-5.22c0-2.8.63-4.88,1.9-6.26s3.19-2.07,5.75-2.07h4.43l.34,2.49h-4.74a4,4,0,0,0-3.4,1.46,7.1,7.1,0,0,0-1.12,4.38,4.68,4.68,0,0,0,1,3.32,4,4,0,0,0,3.08,1.1,4.54,4.54,0,0,0,3.45-1.21,5.13,5.13,0,0,0,1.15-3.64l.5,2.05a6.33,6.33,0,0,1-.68,3,4.07,4.07,0,0,1-2,1.78,7.83,7.83,0,0,1-3.23.59A6.36,6.36,0,0,1,7121,7411.85Zm10.24-16.8a4.14,4.14,0,0,0-1.12-3.11,4.25,4.25,0,0,0-3.14-1.11,3.54,3.54,0,0,0-2.79,1.11,4.48,4.48,0,0,0-1,3.11h-3.33a7,7,0,0,1,1.89-5.23,7.29,7.29,0,0,1,5.34-1.86,8.68,8.68,0,0,1,4,.84,5.76,5.76,0,0,1,2.51,2.42,7.94,7.94,0,0,1,.86,3.83v18.18h-3.2Z" transform="translate(-7052.27 -7026.14)"/><path d="M7139.75,7378.44h3.44v34.79h-3.44Zm5.15,34a5.36,5.36,0,0,1-2-3.12l.33-3.76a7.14,7.14,0,0,0,.47,2.73A3.65,3.65,0,0,0,7145,7410a3.87,3.87,0,0,0,2.18.6,3.69,3.69,0,0,0,3.05-1.35,5.88,5.88,0,0,0,1.09-3.79V7396a5.62,5.62,0,0,0-1.09-3.71,3.72,3.72,0,0,0-3.05-1.32,4,4,0,0,0-2.18.57,3.62,3.62,0,0,0-1.37,1.69,6.89,6.89,0,0,0-.47,2.67l-.5-3.35a6.72,6.72,0,0,1,2.4-3.34,6.09,6.09,0,0,1,3.63-1.21,5.47,5.47,0,0,1,3.23.94,5.69,5.69,0,0,1,2,2.71,12,12,0,0,1,.7,4.32v9.55a12,12,0,0,1-.73,4.39,5.91,5.91,0,0,1-2.12,2.77,6.28,6.28,0,0,1-6.93-.19Z" transform="translate(-7052.27 -7026.14)"/><path d="M7159.46,7388.39h3.45v24.84h-3.45Zm11.28,2.78h-.08a8.48,8.48,0,0,0-5.53,1.66,6.21,6.21,0,0,0-2.22,4.68l-.51-4.78a10.05,10.05,0,0,1,3.59-3.51,9.58,9.58,0,0,1,4.84-1.26v3.21Z" transform="translate(-7052.27 -7026.14)"/><path d="M7175.28,7379.81h3.44v3.44h-3.44Zm0,8.58h3.44v24.84h-3.44Z" transform="translate(-7052.27 -7026.14)"/><path d="M7184.49,7388.39h3.44v24.84h-3.44Zm11.72,7.3a4.89,4.89,0,0,0-1-3.4,4,4,0,0,0-3.11-1.12,3.8,3.8,0,0,0-3.11,1.24,5.8,5.8,0,0,0-1,3.76l-.5-3.59a7.63,7.63,0,0,1,2.34-3.47,5.7,5.7,0,0,1,3.57-1.15,5.79,5.79,0,0,1,4.75,1.93c1,1.28,1.57,3.22,1.57,5.8v17.54h-3.45Z" transform="translate(-7052.27 -7026.14)"/><path d="M7206.19,7411.85a7.34,7.34,0,0,1-1.63-5.22c0-2.8.64-4.88,1.9-6.26s3.19-2.07,5.76-2.07h4.42l.34,2.49h-4.74a4,4,0,0,0-3.4,1.46,7.1,7.1,0,0,0-1.12,4.38,4.68,4.68,0,0,0,1,3.32,4,4,0,0,0,3.08,1.1,4.53,4.53,0,0,0,3.45-1.21,5.13,5.13,0,0,0,1.15-3.64l.5,2.05a6.33,6.33,0,0,1-.68,3,4.07,4.07,0,0,1-1.95,1.78,7.83,7.83,0,0,1-3.23.59A6.36,6.36,0,0,1,7206.19,7411.85Zm10.24-16.8a4.14,4.14,0,0,0-1.12-3.11,4.24,4.24,0,0,0-3.14-1.11,3.54,3.54,0,0,0-2.79,1.11,4.48,4.48,0,0,0-1,3.11h-3.33a7,7,0,0,1,1.89-5.23,7.29,7.29,0,0,1,5.34-1.86,8.65,8.65,0,0,1,4,.84,5.76,5.76,0,0,1,2.51,2.42,7.83,7.83,0,0,1,.86,3.83v18.18h-3.2Z" transform="translate(-7052.27 -7026.14)"/><path d="M7231.84,7378.44h3.23l11,28.57-.58.62v-29.19h3.4v34.77h-3.28l-11-28.57.57-.62v29.19h-3.39Z" transform="translate(-7052.27 -7026.14)"/><path d="M7257,7412.62a6.39,6.39,0,0,1-2.59-2.82,10.18,10.18,0,0,1-.9-4.47v-8.61a11.66,11.66,0,0,1,.88-4.74,6.59,6.59,0,0,1,2.52-3,7.42,7.42,0,0,1,4-1,8.08,8.08,0,0,1,4,.95,6.17,6.17,0,0,1,2.53,2.76,10.06,10.06,0,0,1,.87,4.38v6.17h-12.7V7399h9.26v-2.87a5.74,5.74,0,0,0-1.05-3.68,3.58,3.58,0,0,0-2.95-1.3,3.4,3.4,0,0,0-2.89,1.38,6.39,6.39,0,0,0-1,3.91v9a5.57,5.57,0,0,0,1.08,3.65,3.7,3.7,0,0,0,3,1.3,3.8,3.8,0,0,0,2.85-1,4,4,0,0,0,1-2.92v-.14h3.45v.14a7,7,0,0,1-1.92,5.29,7.39,7.39,0,0,1-5.4,1.87A8,8,0,0,1,7257,7412.62Z" transform="translate(-7052.27 -7026.14)"/><path d="M7273.13,7378.44h3.45v34.79h-3.45Zm11.73,17.25a4.94,4.94,0,0,0-1-3.4,4,4,0,0,0-3.11-1.12,3.79,3.79,0,0,0-3.11,1.24,5.8,5.8,0,0,0-1,3.76l-.51-4.07a7,7,0,0,1,2.34-3.11,6.11,6.11,0,0,1,3.57-1,5.76,5.76,0,0,1,4.75,1.93c1.05,1.28,1.57,3.22,1.57,5.8v17.54h-3.44Z" transform="translate(-7052.27 -7026.14)"/><path d="M7293.56,7388.39H7297v24.84h-3.45Zm11,7.3a5.6,5.6,0,0,0-.85-3.4,3,3,0,0,0-2.57-1.12,3.79,3.79,0,0,0-3.11,1.24,5.8,5.8,0,0,0-1,3.76l-.5-3.59a7.55,7.55,0,0,1,2.34-3.47,5.7,5.7,0,0,1,3.57-1.15,5.45,5.45,0,0,1,3.11.85,5.07,5.07,0,0,1,1.86,2.58,12.6,12.6,0,0,1,.63,4.3v17.54h-3.45Zm11,0a4.94,4.94,0,0,0-1-3.4,4,4,0,0,0-3.11-1.12,2.89,2.89,0,0,0-2.57,1.24,6.71,6.71,0,0,0-.85,3.76l-1-3.11a7.19,7.19,0,0,1,2.13-3.79,5.27,5.27,0,0,1,3.55-1.31,6.72,6.72,0,0,1,3.52.85,5.13,5.13,0,0,1,2.1,2.58,11.6,11.6,0,0,1,.69,4.3v17.54h-3.44Z" transform="translate(-7052.27 -7026.14)"/><path d="M7325.55,7411.85a7.39,7.39,0,0,1-1.62-5.22c0-2.8.63-4.88,1.9-6.26s3.18-2.07,5.75-2.07H7336l.33,2.49h-4.73a4,4,0,0,0-3.4,1.46,7.1,7.1,0,0,0-1.13,4.38,4.73,4.73,0,0,0,1,3.32,4,4,0,0,0,3.09,1.1,4.54,4.54,0,0,0,3.45-1.21,5.12,5.12,0,0,0,1.14-3.64l.51,2.05a6.32,6.32,0,0,1-.69,3,4,4,0,0,1-1.95,1.78,7.8,7.8,0,0,1-3.23.59A6.37,6.37,0,0,1,7325.55,7411.85Zm10.24-16.8a4.18,4.18,0,0,0-1.11-3.11,4.26,4.26,0,0,0-3.15-1.11,3.54,3.54,0,0,0-2.78,1.11,4.44,4.44,0,0,0-1,3.11h-3.32a7,7,0,0,1,1.89-5.23,7.28,7.28,0,0,1,5.33-1.86,8.7,8.7,0,0,1,4,.84,5.81,5.81,0,0,1,2.51,2.42,7.94,7.94,0,0,1,.86,3.83v18.18h-3.21Z" transform="translate(-7052.27 -7026.14)"/><path d="M7344.26,7388.39h3.45v24.84h-3.45Zm11.28,2.78h-.08a8.48,8.48,0,0,0-5.53,1.66,6.28,6.28,0,0,0-2.22,4.68l-.5-4.78a10,10,0,0,1,3.58-3.51,9.58,9.58,0,0,1,4.84-1.26v3.21Z" transform="translate(-7052.27 -7026.14)"/></g><g id="Calque_5" data-name="Calque 5"><path d="M6831.2,7803.21" transform="translate(-7052.27 -7026.14)"/></g><g id="Calque_3" data-name="Calque 3"><path d="M7168.76,7066.19h6.54v67.44h-6.45v-54.22l.47,3-12.9,41.88h-5.66l-12.89-41,.46-3.89v54.22h-6.45v-67.44h6.54l15.17,49.17Z" transform="translate(-7052.27 -7026.14)"/><path d="M7207.84,7066.19h8.07l15.59,67.44h-7.42l-12.2-60-12.2,60h-7.43Zm-6.91,44.85h22.91v6.22h-22.91Z" transform="translate(-7052.27 -7026.14)"/><path d="M7248.45,7066.19h6.68v67.44h-6.68Zm3.62,61.23h16.42a4.73,4.73,0,0,0,3.71-1.44,5.86,5.86,0,0,0,1.3-4.08v-44a5.86,5.86,0,0,0-1.3-4.08,4.73,4.73,0,0,0-3.71-1.44h-16.42v-6.21h16.14a13.84,13.84,0,0,1,6.5,1.41,9.47,9.47,0,0,1,4.08,4.13,14.22,14.22,0,0,1,1.39,6.56v43.24a14.09,14.09,0,0,1-1.41,6.56,9.53,9.53,0,0,1-4.11,4.13,13.82,13.82,0,0,1-6.49,1.41h-16.1Z" transform="translate(-7052.27 -7026.14)"/><path d="M7113.86,7407.93" transform="translate(-7052.27 -7026.14)"/><path d="M7113.86,7031.3" transform="translate(-7052.27 -7026.14)"/><path d="M7298.2,7449.66" transform="translate(-7052.27 -7026.14)"/><path d="M7138.79,7304.6a13.27,13.27,0,0,1-5.38-5.91,21.48,21.48,0,0,1-1.85-9.3v-34.28a21.59,21.59,0,0,1,1.85-9.35,13.42,13.42,0,0,1,5.36-5.92,18.65,18.65,0,0,1,17,0,13.17,13.17,0,0,1,5.35,5.92,21.6,21.6,0,0,1,1.84,9.3v2.46h-6.68v-2.46a14.55,14.55,0,0,0-1.05-5.84,7.89,7.89,0,0,0-3.06-3.69,9,9,0,0,0-4.89-1.28,8.88,8.88,0,0,0-4.85,1.28,8.13,8.13,0,0,0-3.09,3.71,14.59,14.59,0,0,0-1.06,5.87v34.28a14.51,14.51,0,0,0,1.06,5.82,8.13,8.13,0,0,0,3.09,3.71,8.87,8.87,0,0,0,4.85,1.27,9,9,0,0,0,4.89-1.27,7.89,7.89,0,0,0,3.06-3.69,14.62,14.62,0,0,0,1.05-5.84v-2.46h6.68v2.46a21.63,21.63,0,0,1-1.84,9.3,13.1,13.1,0,0,1-5.35,5.91,18.6,18.6,0,0,1-16.94,0Z" transform="translate(-7052.27 -7026.14)"/><path d="M7171.27,7238.5h6.67V7306h-6.67Zm4.73,61.23h23.28V7306H7176Z" transform="translate(-7052.27 -7026.14)"/><path d="M7218.58,7238.5h8.07l15.59,67.45h-7.43l-12.19-60-12.2,60H7203Zm-6.91,44.86h22.91v6.21h-22.91Z" transform="translate(-7052.27 -7026.14)"/><path d="M7248.27,7238.5H7255V7306h-6.68Zm4.87,35.07h14.38a6.57,6.57,0,0,0,3.52-.91,5.64,5.64,0,0,0,2.25-2.64,10.4,10.4,0,0,0,.77-4.2v-13.13a11,11,0,0,0-.77-4.33,5.86,5.86,0,0,0-2.22-2.72,6.58,6.58,0,0,0-3.55-.92h-14.38v-6.22h14a15,15,0,0,1,7.31,1.67,11.1,11.1,0,0,1,4.64,4.85,17,17,0,0,1,1.6,7.67v13.23a16.33,16.33,0,0,1-1.6,7.51,10.93,10.93,0,0,1-4.64,4.73,15.35,15.35,0,0,1-7.31,1.62h-14Z" transform="translate(-7052.27 -7026.14)"/><path d="M7198.36,7163h4.14l14.13,36.61-.73.8V7163h4.35v44.55h-4.2L7202,7171l.73-.8v37.41h-4.35Z" transform="translate(-7052.27 -7026.14)"/><path d="M7236.92,7158.39h8.23v8.22l-8.23,8.69Z" transform="translate(-7052.27 -7026.14)"/><path d="M7182.13,7175.2h-8.23V7167l8.23-8.69Z" transform="translate(-7052.27 -7026.14)"/></g><g id="Calque_6" data-name="Calque 6"><polygon points="84.63 13.09 84.63 0 7.23 0 7.23 77.41 20.98 77.41 20.98 13.09 84.63 13.09"/><polygon points="84.63 305.73 84.63 318.81 7.23 318.81 7.23 241.41 20.98 241.41 20.98 305.73 84.63 305.73"/><polygon points="216.1 305.73 216.1 318.81 293.51 318.81 293.51 241.41 279.76 241.41 279.76 305.73 216.1 305.73"/><polygon points="216.1 13.09 216.1 0 293.51 0 293.51 77.41 279.76 77.41 279.76 13.09 216.1 13.09"/></g></svg>