<?xml version="1.0" encoding="utf-8"?>
<svg xmlns="http://www.w3.org/2000/svg" viewBox="0 0 740.82 704.27"><defs><style>.cls-1{fill:#5b5b5b;}.cls-2,.cls-3,.cls-5{fill:#fff;}.cls-2{stroke:#000;stroke-miterlimit:10;}.cls-4{fill:none;}.cls-5{font-size:34px;font-family:MalgunGothic-Semilight, Malgun Gothic;font-weight:300;letter-spacing:-0.05em;}</style></defs><g id="Calque_3" data-name="Calque 3"><rect class="cls-1" x="311.63" width="429.18" height="697.12"/><path class="cls-2" d="M7213.53,7299.37" transform="translate(-6667.55 -6928.41)"/><polygon class="cls-3" points="494.99 231.54 494.99 235.57 459.05 210.04 459.05 206.49 494.99 231.54"/><path class="cls-3" d="M7104.59,7034.1a12.86,12.86,0,1,0-25.72,0v39.74l25.72,18.27Z" transform="translate(-6667.55 -6928.41)"/><polygon class="cls-3" points="619.31 265.41 437.55 136.25 411.89 118.02 411.89 147.3 437.55 165.53 619.31 294.69 644.97 312.92 644.97 283.65 619.31 265.41"/><path class="cls-3" d="M7286.8,7252.25" transform="translate(-6667.55 -6928.41)"/><polygon class="cls-3" points="644.97 92.73 644.97 311.16 619.25 292.89 619.25 92.73 644.97 92.73"/><polygon class="cls-3" points="494.99 235.57 494.99 356.92 459.05 356.92 459.05 210.04 494.99 235.57"/><path class="cls-3" d="M7078.87,7272.47a12.86,12.86,0,0,0,25.72,0V7119.91l-25.72-18.27Z" transform="translate(-6667.55 -6928.41)"/><polygon class="cls-3" points="619.25 356.92 644.97 356.92 644.97 339.05 619.25 320.78 619.25 356.92"/><polygon class="cls-3" points="510.88 552.03 536.6 552.03 536.6 534.16 510.88 515.89 510.88 552.03"/><polygon class="cls-3" points="491.35 431.35 491.35 552.7 455.41 552.7 455.41 405.82 491.35 431.35"/><path class="cls-3" d="M7075.24,7468.24a12.86,12.86,0,1,0,25.72,0V7315.68l-25.72-18.27Z" transform="translate(-6667.55 -6928.41)"/></g><g id="Calque_4" data-name="Calque 4"><polygon class="cls-4" points="0 291.16 0 269.4 0 269.4 0 269.4 0 291.16"/><text class="cls-5" transform="translate(382.1 627.4)">MEDIA PRODUCTION</text><rect class="cls-3" x="324.36" y="12.17" width="15.7" height="91.21"/><rect class="cls-3" x="7030.21" y="6902.38" width="15.7" height="92.08" transform="translate(-6577.92 7058.07) rotate(-90)"/><polyline class="cls-3" points="638.63 28.38 729.84 28.77 729.91 13.07 638.69 12.68"/><polyline class="cls-3" points="729.51 105.31 729.9 13.23 714.2 13.16 713.81 105.24"/><polyline class="cls-3" points="714.39 592.15 714.63 683.37 730.33 683.33 730.09 592.11"/><polyline class="cls-3" points="637.4 683.57 729.48 683.33 729.44 667.63 637.36 667.87"/><polyline class="cls-3" points="417.2 669.04 325.99 667.96 325.81 683.66 417.01 684.74"/><polyline class="cls-3" points="326.91 590.74 325.82 682.81 341.52 683 342.61 590.93"/><path class="cls-3" d="M7312.52,7241.33" transform="translate(-6667.55 -6928.41)"/><path class="cls-3" d="M7158.91,7439.71" transform="translate(-6667.55 -6928.41)"/><path class="cls-3" d="M7389.41,7299.37" transform="translate(-6667.55 -6928.41)"/><path class="cls-3" d="M7270.56,7492.8" transform="translate(-6667.55 -6928.41)"/><path class="cls-3" d="M7178.43,7432.9" transform="translate(-6667.55 -6928.41)"/></g><g id="Calque_5" data-name="Calque 5"><polygon class="cls-3" points="626.51 470.59 626.51 552.03 555.98 511.31 626.51 470.59"/><path class="cls-3" d="M6831.2,7803.21" transform="translate(-6667.55 -6928.41)"/><rect class="cls-3" x="633.3" y="440.39" width="11.67" height="112.31"/></g></svg>